<?xml version="1.0" standalone="no"?>
<!DOCTYPE svg PUBLIC "-//W3C//DTD SVG 20010904//EN"
 "http://www.w3.org/TR/2001/REC-SVG-20010904/DTD/svg10.dtd">
<svg version="1.0" xmlns="http://www.w3.org/2000/svg"
 width="400.000000pt" height="400.000000pt" viewBox="0 0 400.000000 400.000000"
 preserveAspectRatio="xMidYMid meet">
<metadata>
Created by potrace 1.14, written by Peter Selinger 2001-2017
</metadata>
<g transform="translate(0.000000,400.000000) scale(0.100000,-0.100000)"
fill="#000000" stroke="none">
<path d="M1865 3214 c-38 -8 -112 -35 -162 -60 -171 -82 -286 -231 -334 -430
-79 -329 96 -670 401 -784 52 -20 63 -21 75 -9 17 16 185 326 185 340 0 5 -8
9 -17 9 -9 0 -44 8 -77 17 -121 34 -189 137 -181 272 10 154 111 253 260 254
199 1 313 -167 248 -368 -11 -33 -92 -190 -181 -348 -89 -159 -162 -293 -162
-298 0 -5 -4 -9 -10 -9 -5 0 -10 -7 -10 -15 0 -8 -5 -15 -11 -15 -12 0 -245
121 -329 170 -83 49 -354 179 -420 201 -84 29 -256 35 -350 14 -295 -68 -497
-328 -498 -642 0 -156 39 -294 117 -407 191 -277 613 -356 909 -170 76 48 190
167 224 235 27 52 58 133 58 149 0 8 -50 37 -195 115 -38 21 -89 48 -113 62
-47 27 -45 28 -62 -51 -15 -67 -36 -106 -78 -143 -109 -98 -310 -82 -402 30
-54 67 -72 196 -37 279 19 46 88 115 135 136 57 25 146 24 217 -2 33 -12 184
-90 335 -173 1430 -785 1379 -759 1529 -787 84 -16 208 -12 292 9 275 70 468
312 483 606 16 319 -158 581 -449 676 -66 21 -100 26 -195 27 -126 1 -171 -4
-245 -30 -143 -48 -260 -139 -340 -264 -44 -70 -86 -172 -76 -188 8 -12 77
-53 216 -127 61 -32 116 -62 123 -68 8 -6 12 -5 13 4 1 30 10 66 27 113 59
169 299 220 437 94 51 -45 77 -101 83 -174 9 -113 -45 -212 -141 -258 -113
-54 -197 -38 -407 79 -41 23 -102 57 -135 75 -123 68 -142 79 -247 139 -59 35
-110 67 -113 72 -4 5 40 93 97 196 140 257 295 565 308 613 85 317 -45 637
-315 773 -135 68 -335 93 -480 61z"/>
</g>
</svg>
